<?xml version="1.0" encoding="UTF-8" standalone="no"?>
<!-- Created with Inkscape (http://www.inkscape.org/) -->

<svg
   width="210mm"
   height="297mm"
   viewBox="0 0 210 297"
   version="1.1"
   id="svg1"
   xml:space="preserve"
   inkscape:version="1.3 (0e150ed6c4, 2023-07-21)"
   sodipodi:docname="Mascote.svg"
   xmlns:inkscape="http://www.inkscape.org/namespaces/inkscape"
   xmlns:sodipodi="http://sodipodi.sourceforge.net/DTD/sodipodi-0.dtd"
   xmlns="http://www.w3.org/2000/svg"
   xmlns:svg="http://www.w3.org/2000/svg"><sodipodi:namedview
     id="namedview1"
     pagecolor="#505050"
     bordercolor="#ffffff"
     borderopacity="1"
     inkscape:showpageshadow="0"
     inkscape:pageopacity="0"
     inkscape:pagecheckerboard="1"
     inkscape:deskcolor="#505050"
     inkscape:document-units="mm"
     inkscape:zoom="1"
     inkscape:cx="227"
     inkscape:cy="570.5"
     inkscape:window-width="1600"
     inkscape:window-height="837"
     inkscape:window-x="-8"
     inkscape:window-y="-8"
     inkscape:window-maximized="1"
     inkscape:current-layer="layer1" /><defs
     id="defs1" /><g
     inkscape:label="Camada 1"
     inkscape:groupmode="layer"
     id="layer1"
     transform="translate(16.404167,-10.054167)"><g
       id="g102"
       inkscape:label="Corpo"><path
         style="opacity:1;fill:#536d8b;fill-opacity:0.977419;stroke:#000000;stroke-width:1.6;stroke-dasharray:none;stroke-opacity:1"
         d="m 133.58358,102.00928 3.30729,-2.06706 9.76684,-0.05168 6.1495,6.66626 -8.28852,82.79739 -76.918292,-4.96954 -4.019484,-2.92326 9.062109,-78.2703 2.630934,-2.11936 4.969542,-0.21925 1.607794,1.02315 8.112048,-0.21925 1.680874,-1.827038 38.367795,-0.876978 z"
         id="path6"
         sodipodi:nodetypes="ccccccccccccccc" /><path
         style="opacity:1;fill:#223156;fill-opacity:0.958064;stroke:#000000;stroke-width:0.6;stroke-dasharray:none;stroke-opacity:1"
         d="m 143.81551,189.60083 -3.38664,-2.65323 7.95427,-84.48135 4.26904,4.8657 z"
         id="path7"
         sodipodi:nodetypes="ccccc" /><path
         style="fill:none;fill-opacity:1;stroke:#fdfdfd;stroke-width:0.564999;stroke-linecap:square;stroke-dasharray:none;stroke-opacity:0.609677"
         d="m 64.694636,181.05284 8.942212,-77.25349 2.017449,-1.62058 4.281019,-0.24246 1.109866,0.60627"
         id="path89"
         sodipodi:nodetypes="ccccc" /><path
         style="fill:#223155;fill-opacity:0.976471;stroke:none;stroke-width:0.564999;stroke-linecap:square;stroke-dasharray:none;stroke-opacity:1"
         d="m 140.24287,185.74483 -75.825198,-4.70873 3.451964,2.561 c 24.616327,1.58116 49.756604,3.24964 73.848984,4.74347 l -1.61029,-1.26943 z"
         id="path90"
         sodipodi:nodetypes="cccccc" /><path
         style="fill:none;fill-opacity:0;stroke:#000000;stroke-width:0.765;stroke-linecap:square;stroke-dasharray:none;stroke-opacity:1"
         d="m 73.058125,183.81461 -1.122532,-1.82411 c 2.447587,-27.31575 6.65098,-53.01495 9.073801,-79.55946"
         id="path82"
         sodipodi:nodetypes="ccc" /><path
         style="fill:#000000;fill-opacity:1;stroke:#000000;stroke-width:0.565;stroke-linecap:square;stroke-dasharray:none;stroke-opacity:1"
         d="m 67.11806,173.01025 3.507912,0.0935 -0.467723,5.89329 -3.554685,-0.0468 z"
         id="path83" /><path
         style="fill:#fffffa;fill-opacity:1;stroke:none;stroke-width:0.564999;stroke-linecap:square;stroke-dasharray:none;stroke-opacity:1"
         d="M 69.833463,177.81653 H 68.16328 l 0.380339,-3.52226 1.5875,-0.0165 z"
         id="path84"
         sodipodi:nodetypes="ccccc" /><path
         style="fill:#000000;fill-opacity:1;stroke:#000000;stroke-width:0.565;stroke-linecap:square;stroke-dasharray:none;stroke-opacity:1"
         d="m 75.617799,104.41702 3.011819,-0.10494 -0.500796,7.7123 -3.223956,-0.0468 z"
         id="path85"
         sodipodi:nodetypes="ccccc" /><path
         style="fill:#fffffa;fill-opacity:1;stroke:none;stroke-width:0.564999;stroke-linecap:square;stroke-dasharray:none;stroke-opacity:1"
         d="m 77.622135,111.48879 -1.455209,0.0165 0.01654,-2.1332 1.521354,-0.0165 z"
         id="path86"
         sodipodi:nodetypes="ccccc" /><path
         style="fill:none;fill-opacity:1;stroke:#000000;stroke-width:0.564999;stroke-linecap:square;stroke-dasharray:none;stroke-opacity:1"
         d="m 132.68854,187.65573 -1.65365,-1.91823 5.02709,-46.30209"
         id="path87" /><path
         style="fill:#000000;fill-opacity:1;stroke:#000000;stroke-width:0.565;stroke-linecap:square;stroke-dasharray:none;stroke-opacity:1"
         d="m 134.18935,175.91012 3.50791,0.0935 -0.46772,5.89329 -3.55468,-0.0468 z"
         id="path88" /><path
         style="fill:#223155;fill-opacity:0.976471;stroke:none;stroke-width:0.865;stroke-linecap:square;stroke-dasharray:none;stroke-opacity:1"
         d="m 130.63466,100.53678 -0.36248,4.22118 2.72448,-2.22168 z"
         id="path93"
         sodipodi:nodetypes="cccc" /><path
         style="fill:none;fill-opacity:0;stroke:#000000;stroke-width:0.865;stroke-linecap:square;stroke-dasharray:none;stroke-opacity:1"
         d="m 130.25813,105.20098 3.93855,-3.15214"
         id="path92"
         sodipodi:nodetypes="cc" /></g><g
       id="g25"
       inkscape:label="Treco"><path
         style="opacity:1;fill:#fbfffb;fill-opacity:1;stroke:#000000;stroke-width:0.6;stroke-dasharray:none;stroke-opacity:1"
         d="m 90.694735,100.71996 39.761655,-1.386394 -2.20131,25.865544 c -0.0246,2.96143 -0.94503,5.01517 -5.4074,4.50354 l -29.816303,-0.0971 c -4.525367,0.16174 -5.140146,-0.9991 -4.896065,-4.65486 z"
         id="path1"
         sodipodi:nodetypes="ccccccc" /><path
         style="opacity:1;fill:#4f6d87;fill-opacity:1;stroke:#000000;stroke-width:0.9;stroke-dasharray:none;stroke-opacity:1"
         d="m 112.91094,103.5565 11.72958,-0.10962 -2.48478,22.47256 -11.61996,-0.65773 z"
         id="path2"
         sodipodi:nodetypes="ccccc" /><path
         style="opacity:1;fill:#000000;fill-opacity:1;stroke:#000000;stroke-width:0.1;stroke-dasharray:none;stroke-opacity:1"
         d="m 122.15574,128.80616 c -5.11192,-4.89706 -7.72362,-3.74855 -10.81605,-3.19731 1.43409,-2.831 3.69707,-3.87557 6.79657,-3.25213 4.09462,1.97987 3.37825,4.44357 4.01948,6.44944 z"
         id="path3"
         sodipodi:nodetypes="cccc" /><path
         style="opacity:1;fill:#000000;fill-opacity:1;stroke:#000000;stroke-width:0.1;stroke-dasharray:none;stroke-opacity:1"
         d="m 81.41622,130.99975 c 4.506633,-3.38313 9.161284,-3.14048 13.461708,-0.95601 -1.230248,-1.83428 -2.089073,-4.18939 -6.821288,-4.65088 -3.08906,0.34908 -5.376638,2.08941 -6.64042,5.60689 z"
         id="path4"
         sodipodi:nodetypes="cccc" /><path
         style="opacity:1;fill:#000000;fill-opacity:1;stroke:#000000;stroke-width:0.1;stroke-dasharray:none;stroke-opacity:1"
         d="m 81.41622,130.99975 c 4.506633,-3.38313 9.161284,-3.14048 13.461708,-0.95601 -1.230248,-1.83428 -2.089073,-4.18939 -6.821288,-4.65088 -3.08906,0.34908 -5.376638,2.08941 -6.64042,5.60689 z"
         id="path5"
         sodipodi:nodetypes="cccc" /></g><g
       id="g24"
       inkscape:label="Mao esq"><path
         style="opacity:1;fill:#fbfffb;fill-opacity:1;stroke:#000000;stroke-width:1.2;stroke-dasharray:none;stroke-opacity:1"
         d="m 152.19225,182.33837 c -1.93288,-2.04713 -8.38594,2.23582 -12.02191,-6.28501 -9.84583,-5.41026 -2.6056,-9.398 -2.41169,-9.71984 -1.99679,-5.33474 0.69413,-6.281 3.1425,-7.45432 -2.31731,-4.84783 4.02063,-5.99923 6.06577,-5.1157 4.61819,0.98605 6.3046,3.82376 9.28135,5.84652 -2.2431,-7.92371 4.00201,-11.97235 8.47746,-11.03531 9.01708,3.07603 -2.27514,8.90364 -1.71742,11.29109 0.91924,2.89054 0.98423,4.99626 0.86994,7.19777 6.61624,5.13067 -1.10406,18.15594 -11.686,15.2748 z"
         id="path8"
         sodipodi:nodetypes="cccccccccc" /><path
         style="opacity:1;fill:#000000;fill-opacity:1;stroke:none;stroke-width:1.2;stroke-dasharray:none;stroke-opacity:1"
         d="m 137.69185,167.05698 c 2.36044,-0.0596 3.23799,0.39483 4.36666,0.76223 -1.27199,-1.00638 -2.59417,-1.95699 -4.17287,-2.62258"
         id="path9"
         sodipodi:nodetypes="ccc" /><path
         style="opacity:1;fill:#000000;fill-opacity:1;stroke:none;stroke-width:1.2;stroke-dasharray:none;stroke-opacity:1"
         d="m 140.19816,159.92563 c 3.05265,-0.58891 7.61874,1.77265 8.57829,2.28668 -1.27199,-1.10775 -5.83687,-3.24506 -7.41557,-3.50108"
         id="path10"
         sodipodi:nodetypes="ccc" /><path
         style="opacity:1;fill:#000000;fill-opacity:1;stroke:none;stroke-width:1.2;stroke-dasharray:none;stroke-opacity:1"
         d="m 138.66078,175.66111 c 2.5302,0.53455 3.85875,0.3906 4.80591,0.47801 -1.18257,-0.25212 -4.70576,-1.75426 -6.11073,-2.71301"
         id="path11"
         sodipodi:nodetypes="ccc" /><path
         style="opacity:1;fill:#000000;fill-opacity:1;stroke:none;stroke-width:1.2;stroke-dasharray:none;stroke-opacity:1"
         d="m 163.29199,167.29935 c 0.76856,2.86911 -1.41514,8.14735 -2.2681,8.78975 1.39763,-1.05408 3.26499,-5.87961 3.47905,-7.70433"
         id="path12"
         sodipodi:nodetypes="ccc" /><path
         style="opacity:1;fill:#000000;fill-opacity:1;stroke:none;stroke-width:1.2908;stroke-dasharray:none;stroke-opacity:1"
         d="m 150.01223,181.21721 c 4.55429,-3.5e-4 7.5625,-2.04177 8.24212,-2.9812 0.034,1.16346 -5.8178,4.3814 -7.72161,3.66713"
         id="path13"
         sodipodi:nodetypes="ccc" /></g><g
       id="g23"
       inkscape:label="Mao dir"><path
         style="fill:#000000;fill-opacity:1;stroke:none;stroke-width:0.564999;stroke-linecap:square;stroke-dasharray:none;stroke-opacity:1"
         d="m 56.356249,162.58646 c 2.37169,4.30052 5.642944,3.31611 8.995834,1.85208 l -0.926042,10.12031 c -6.177728,1.6273 -9.720574,0.065 -13.626042,-1.05833 z"
         id="path91"
         sodipodi:nodetypes="ccccc" /><path
         style="opacity:1;fill:#fbfffb;fill-opacity:1;stroke:#000000;stroke-width:1.31592;stroke-dasharray:none;stroke-opacity:1"
         d="m 43.181206,170.16775 c -3.584928,-1.3569 -7.635303,-0.40348 -11.805309,-7.78203 -2.099089,-1.71062 -2.991003,-2.27212 -4.871409,-2.87148 -2.540839,-0.80985 -3.562625,-1.20877 -5.395263,-1.84663 -2.688593,-0.93579 -2.780974,-4.42281 0.0028,-4.6645 1.401911,-0.12171 2.997129,-0.0194 6.02202,0.76621 -4.051519,-2.15269 -8.591282,-1.70733 -9.783065,-4.50314 -1.523024,-3.57289 1.939373,-4.90158 4.426747,-4.39678 4.057834,0.82353 9.415211,2.81761 12.173102,4.62733 -3.970725,-3.0458 -8.56195,-4.14827 -9.521545,-5.90503 -1.942697,-3.55654 4.079759,-6.67183 10.710003,-1.91751 3.721121,2.89469 9.488482,9.96575 13.072991,7.82255 0.35694,-7.80443 2.574022,-13.85509 8.008575,-12.12823 5.723543,3.7833 -3.516015,10.71309 -2.739764,13.38469 1.841157,4.20659 1.450639,4.97599 1.53736,7.90279 3.87073,4.76958 0.987883,17.50036 -9.381151,14.61241 -1.064703,-0.36649 -1.822294,-1.21782 -2.456111,-3.10065 z"
         id="path18"
         sodipodi:nodetypes="ccssscsscsccccccc" /><path
         style="fill:#000000;fill-opacity:1;stroke:none;stroke-width:1.85247;stroke-dasharray:none;stroke-opacity:1"
         d="m 47.934922,150.07016 c -3.675809,5.09778 -3.342739,9.84468 -2.620614,11.24037 -1.601204,-0.74838 -1.230317,-9.47332 1.272626,-11.12143"
         id="path23-2"
         sodipodi:nodetypes="ccc" /><path
         style="fill:#000000;fill-opacity:1;stroke:none;stroke-width:1.05903;stroke-dasharray:none;stroke-opacity:1"
         d="m 36.470144,154.26102 c 1.150513,-2.2949 3.745889,-3.89891 5.005718,-4.99472 -1.834372,0.58618 -4.321869,2.3207 -5.857964,4.35068"
         id="path19-5"
         sodipodi:nodetypes="ccc" /><path
         style="fill:#000000;fill-opacity:1;stroke:none;stroke-width:1.05063;stroke-dasharray:none;stroke-opacity:1"
         d="m 36.479147,154.22861 c -1.977525,2.10712 -2.795044,4.84336 -3.507688,6.36873 0.157529,-2.09341 1.18519,-5.06897 2.659086,-7.01656"
         id="path19-6"
         sodipodi:nodetypes="ccc" /><path
         style="opacity:1;fill:#000000;fill-opacity:1;stroke:none;stroke-width:1.21346;stroke-dasharray:none;stroke-opacity:1"
         d="m 26.879062,154.38615 c 2.412213,0.64468 5.464385,2.37275 6.974616,3.22883 -0.2083,-0.24171 0.712524,-0.24874 0.467796,-0.50272 -1.5126,-1.56974 -5.791672,-3.53898 -7.009915,-4.00981"
         id="path19"
         sodipodi:nodetypes="ccsc" /><path
         style="opacity:1;fill:#000000;fill-opacity:1;stroke:none;stroke-width:0.784206;stroke-dasharray:none;stroke-opacity:1"
         d="m 31.912951,148.91682 c 0.624846,0.58045 5.283519,3.29798 5.582962,3.5673 -0.09608,-0.25971 0.6823,-0.24517 0.473676,-0.4853 -0.695467,-0.80053 -2.267344,-2.152 -3.744959,-3.09533"
         id="path20"
         sodipodi:nodetypes="ccsc" /><path
         style="opacity:1;fill:#000000;fill-opacity:1;stroke:none;stroke-width:1.25417;stroke-dasharray:none;stroke-opacity:1"
         d="m 54.564975,156.78004 c 0.09859,3.24959 -2.34145,7.97402 -3.314597,8.48295 1.594897,-0.83552 3.625611,-5.14053 4.245318,-7.0573"
         id="path22"
         sodipodi:nodetypes="ccc" /><path
         style="opacity:1;fill:#000000;fill-opacity:1;stroke:none;stroke-width:1.27693;stroke-dasharray:none;stroke-opacity:1"
         d="m 42.798526,169.57264 c 4.018109,-3.8e-4 5.562937,-1.21093 6.162545,-2.25296 0.03,1.29052 -4.023643,3.80608 -5.703315,3.01381"
         id="path23"
         sodipodi:nodetypes="ccc" /></g><g
       id="g15"
       inkscape:label="Teclas"
       transform="translate(-0.74120259,9.3436769)"><path
         style="opacity:1;fill:#2c2c2c;fill-opacity:1;stroke:#000000;stroke-width:0.165;stroke-linecap:round;stroke-dasharray:none;stroke-opacity:1"
         d="m 22.682674,120.71238 -0.813032,2.42996 c -0.03267,0.3416 -0.292597,0.97204 0.328867,1.78137 l 2.192445,3.89158 c 0.694274,1.11946 1.388549,0.80103 2.082823,0.54812 l 10.889144,-4.06516 c 0.301869,-0.20991 0.678408,-0.28365 0.584653,-1.21498 l -1.19671,-3.36175 z"
         id="path35"
         sodipodi:nodetypes="ccccccccc" /><path
         style="opacity:1;fill:#7d7d7c;fill-opacity:1;stroke:#000000;stroke-width:0.265;stroke-dasharray:none;stroke-opacity:1"
         d="m 24.626732,124.66711 c 0.570394,0.91316 1.129975,0.87289 1.753056,0.70833 2.798312,-0.73906 9.020368,-3.37336 10.083713,-3.7215 0.443955,-0.24438 0.500211,-0.65279 0.04881,-1.27597 l -2.041218,-2.7001 c -0.28893,-0.38735 -0.77365,-0.71851 -1.679485,-0.45217 l -9.508462,2.94556 c -0.709774,0.34065 -0.698147,0.90912 -0.42633,1.44694 0,0 1.500589,2.73831 1.769919,3.04891 1e-6,0 -3e-6,0 -3e-6,0 z"
         id="path27"
         sodipodi:nodetypes="ssccccccss" /><path
         style="opacity:1;fill:#000000;fill-opacity:0;stroke:#ffffff;stroke-width:0.165;stroke-linecap:round;stroke-dasharray:none;stroke-opacity:1"
         d="m 29.006308,120.59759 c -0.834019,0.0388 -1.350823,0.2428 -1.057146,0.80052 0.269633,0.51206 1.219748,0.32098 1.599751,0.078"
         id="path29"
         sodipodi:nodetypes="csc" /><path
         style="opacity:1;fill:#000000;fill-opacity:0;stroke:#ffffff;stroke-width:0.165;stroke-linecap:round;stroke-dasharray:none;stroke-opacity:1"
         d="m 30.737469,121.19187 c -0.64289,0.31973 -0.931664,-0.48442 -1.162718,-0.9108"
         id="path30"
         sodipodi:nodetypes="cc" /><path
         style="opacity:1;fill:#000000;fill-opacity:0;stroke:#ffffff;stroke-width:0.165;stroke-linecap:round;stroke-dasharray:none;stroke-opacity:1"
         d="m 29.406802,120.62989 0.671793,-0.20671"
         id="path31" /><path
         style="opacity:1;fill:#000000;fill-opacity:0;stroke:#ffffff;stroke-width:0.165;stroke-linecap:round;stroke-dasharray:none;stroke-opacity:1"
         d="M 31.17672,121.01746 30.5889,120.22294"
         id="path32"
         sodipodi:nodetypes="cc" /><path
         style="opacity:1;fill:#000000;fill-opacity:0;stroke:#ffffff;stroke-width:0.165;stroke-linecap:round;stroke-dasharray:none;stroke-opacity:1"
         d="m 30.834363,120.52976 c 0.02885,-0.22631 0.08527,-0.37293 0.335896,-0.4457"
         id="path33"
         sodipodi:nodetypes="cc" /><path
         style="opacity:1;fill:#000000;fill-opacity:0;stroke:#ffffff;stroke-width:0.165;stroke-linecap:round;stroke-dasharray:none;stroke-opacity:1"
         d="m 31.331749,119.62866 0.826823,1.07228"
         id="path34"
         sodipodi:nodetypes="cc" /><path
         style="fill:#2c2c2c;fill-opacity:1;stroke:#000000;stroke-width:0.264583;stroke-opacity:1"
         d="m 38.567099,125.13037 -0.194436,2.43062 c -0.148423,0.64199 0.14935,1.07151 0.723469,1.36943 l 6.149496,1.98954 c 0.932311,0.19206 1.844794,0.26019 2.506308,-1.24023 l 2.092894,-4.62504 c 0.325295,-0.8091 0.372225,-1.56361 -0.09045,-2.13166 -0.833579,-0.92069 -1.793052,-2.03022 -1.927702,-1.90251 z"
         id="path14"
         sodipodi:nodetypes="ccccccccc" /><path
         style="opacity:1;fill:#7d7d7c;fill-opacity:1;stroke:#000000;stroke-width:0.265;stroke-dasharray:none;stroke-opacity:1"
         d="m 39.329028,125.78375 c 2.222937,0.70822 4.216209,1.43272 5.172806,1.69809 1.173339,0.14917 1.549492,-0.5486 1.991485,-1.30522 l 1.609688,-3.24385 c 0.552638,-0.99526 0.507685,-1.8766 -0.95979,-2.1626 l -4.237085,-0.98689 c -0.28196,-0.0143 -1.246195,-0.37844 -1.706561,0.47562 0,0 -1.951078,3.44385 -2.169759,3.85484 -0.794828,1.31207 -0.523532,1.40789 0.299216,1.67001 z"
         id="path36"
         sodipodi:nodetypes="scccccccs" /><path
         style="fill:none;fill-opacity:0.209677;stroke:#ffffff;stroke-width:0.22243;stroke-linecap:round;stroke-dasharray:none;stroke-opacity:1"
         d="m 44.293626,122.58197 c -1.422125,-0.8528 -1.89027,-0.0442 -0.6913,0.647 0.570087,0.32864 0.347497,1.4067 -1.076282,0.33823"
         id="path15"
         sodipodi:nodetypes="csc" /></g><g
       id="g61"
       inkscape:label="Pe direito"><path
         style="fill:#6d71d6;fill-opacity:1;stroke:#000000;stroke-width:1.365;stroke-linecap:round;stroke-dasharray:none;stroke-opacity:1"
         d="m 81.26664,191.76588 c -2.663674,0.61808 -5.779445,-0.17921 -5.554196,2.7771 -1.359249,1.02159 -2.930553,-0.002 -3.507911,2.15591 -1.2886,0.52625 -2.611298,1.01841 -3.142505,2.30206 -11.384737,2.29867 -9.726911,13.9726 -8.623618,15.71253 7.46686,3.54085 11.796524,2.3541 18.855029,1.46163 5.267768,-2.13547 9.908099,-4.44206 14.104732,-6.86966 -0.164394,-5.11355 -0.529746,-9.57811 -1.388548,-14.39706 0.220036,-3.9235 -1.891734,-3.57201 -3.28867,-4.53106 z"
         id="path16"
         sodipodi:nodetypes="cccccccccc" /><path
         style="opacity:1;fill:#fbfbfb;fill-opacity:1;stroke:#000000;stroke-width:0.765;stroke-linecap:round;stroke-dasharray:none;stroke-opacity:1"
         d="m 80.887452,203.20189 c 1.592137,0.0434 2.169747,-0.39 1.523537,-2.43895 2.807102,0.9718 2.331036,-1.28678 1.937866,-2.73885 1.770418,3.47409 4.04091,1.09421 2.131654,-2.48047 -1.520407,-1.9443 -5.015881,-3.44164 -8.402707,-3.25455 -2.543956,-0.0486 -2.583143,1.08579 -1.90674,2.55692 -2.096434,0.10312 -4.240208,-0.007 -3.812056,2.00127 -1.537834,-0.0289 -3.809886,0.67479 -2.931721,2.62377 4.533284,-0.043 8.579903,0.71094 11.460167,3.73086 z"
         id="path21"
         sodipodi:nodetypes="ccccccccc" /><path
         style="opacity:1;fill:#adbfd6;fill-opacity:1;stroke:none;stroke-width:0.0649999;stroke-linecap:round;stroke-dasharray:none;stroke-opacity:1"
         d="m 80.273642,202.11828 c 0.542362,-0.5265 1.111356,-0.82854 1.581826,-1.96099 0.135679,0.47709 0.294909,0.95418 0.388161,1.43128 0.180922,1.01327 -0.126993,1.14898 -0.693158,1.20797 -0.15531,0.0162 -0.330345,0.0243 -0.523173,0.0263 -0.272361,-0.32047 -0.495185,-0.48128 -0.753656,-0.70453 z"
         id="path43"
         sodipodi:nodetypes="cccsccc" /><path
         style="opacity:1;fill:none;fill-opacity:0;stroke:#000000;stroke-width:0.665;stroke-linecap:round;stroke-dasharray:none;stroke-opacity:1"
         d="m 82.636917,200.75491 c -2.867639,-3.03291 -6.33879,-3.89042 -10.240546,-3.83678"
         id="path24"
         sodipodi:nodetypes="cc" /><path
         style="opacity:1;fill:#adbfd6;fill-opacity:1;stroke:none;stroke-width:0.0649999;stroke-linecap:round;stroke-dasharray:none;stroke-opacity:1"
         d="m 82.06885,199.73893 c 0.754186,-0.45979 1.282059,-1.10725 1.584248,-1.94186 0.107996,0.0941 0.317084,0.18017 0.355568,0.30957 0.12895,0.43357 0.2979,1.4048 0.245991,1.82914 -0.02271,0.62845 -0.423619,0.72018 -0.880247,0.66777 -0.151729,-0.0174 -0.367866,-0.0433 -0.529521,-0.10885 -0.255363,-0.24852 -0.496061,-0.5262 -0.776039,-0.75553 z"
         id="path44"
         sodipodi:nodetypes="ccscsccc" /><path
         style="opacity:1;fill:none;fill-opacity:0;stroke:#000000;stroke-width:0.665001;stroke-linecap:round;stroke-dasharray:none;stroke-opacity:1"
         d="m 84.426577,198.04359 c -1.713104,-1.65454 -4.708105,-3.52876 -8.476619,-3.13521"
         id="path25"
         sodipodi:nodetypes="cc" /><path
         style="opacity:1;fill:#5e62b8;fill-opacity:1;stroke:none;stroke-width:0.0649999;stroke-linecap:round;stroke-dasharray:none;stroke-opacity:1"
         d="m 80.26177,203.73298 c 3.102274,0.0876 8.028687,0.94748 12.061583,-1.10601 l 0.325731,3.49944 -10.505467,4.1291 z"
         id="path39"
         sodipodi:nodetypes="ccccc" /><path
         style="opacity:1;fill:#26295a;fill-opacity:1;stroke:none;stroke-width:0.0649999;stroke-linecap:round;stroke-dasharray:none;stroke-opacity:1"
         d="m 82.962131,208.93127 c 1.318906,-1.70977 6.260935,-2.92063 9.544798,-4.32749 l 0.04373,0.45143 -0.03288,0.30674 0.0093,0.26604 -9.412898,4.7766 z"
         id="path42"
         sodipodi:nodetypes="ccccccc" /><path
         style="opacity:1;fill:#fbfbfb;fill-opacity:1;stroke:#000000;stroke-width:0.265;stroke-linecap:round;stroke-dasharray:none;stroke-opacity:1"
         d="m 83.392842,209.46396 9.261164,-4.30356 -0.0037,3.9005 c -4.486641,2.19349 -8.714319,4.52823 -13.688745,6.45565 -7.546032,1.78303 -12.775744,1.00772 -18.190103,-1.47277 -0.734674,-1.51656 -0.916403,-2.92293 -0.86558,-4.24393"
         id="path26"
         sodipodi:nodetypes="cccccc" /><path
         style="opacity:1;fill:#fbfbfb;fill-opacity:1;stroke:#000000;stroke-width:0.265;stroke-linecap:round;stroke-dasharray:none;stroke-opacity:1"
         d="m 59.87082,209.66955 c 7.58265,3.6571 15.331907,3.42143 23.551725,-0.21794 -1.333738,-9.70104 -10.631885,-9.73045 -14.323976,-10.08525 -6.122447,0.34759 -8.252581,4.5338 -9.227749,10.30319 z"
         id="path17"
         sodipodi:nodetypes="cccc" /><path
         style="opacity:1;fill:#a1bce1;fill-opacity:1;stroke:none;stroke-width:0.0649999;stroke-linecap:round;stroke-dasharray:none;stroke-opacity:1"
         d="m 60.22829,208.48964 c 3.39922,4.02124 19.889563,3.0376 22.692551,-0.8574 0.173753,0.78186 0.129089,0.31736 0.355541,1.74629 -5.766172,2.48186 -11.224635,3.46268 -17.280517,2.26978 -1.879239,-0.37018 -3.780673,-1.00504 -5.974731,-2.04851 0.10816,-0.69978 0.08035,-0.49846 0.207156,-1.11016 z"
         id="path40"
         sodipodi:nodetypes="cccscc" /><path
         style="opacity:1;fill:#474f92;fill-opacity:1;stroke:#000000;stroke-width:0.264999;stroke-linecap:round;stroke-dasharray:none;stroke-opacity:1"
         d="m 86.254424,195.13667 c 1.869823,0.46931 3.822128,-0.4663 5.08367,-1.996 -0.730557,-1.85446 -1.672019,-1.73737 -2.583822,-2.0929"
         id="path28"
         sodipodi:nodetypes="ccc" /><path
         style="opacity:1;fill:#262953;fill-opacity:0.266667;stroke:none;stroke-width:0.065;stroke-linecap:round;stroke-dasharray:none;stroke-opacity:1"
         d="m 86.506348,195.07853 c 1.009781,0.2604 0.821197,0.3383 1.50213,0.0294 1.59575,-0.68745 3.616903,-2.54723 1.169148,-3.92023 l -2.38706,-0.32076"
         id="path38"
         sodipodi:nodetypes="cccc" /><path
         style="opacity:1;fill:#000000;fill-opacity:1;stroke:#000000;stroke-width:0.264999;stroke-linecap:round;stroke-dasharray:none;stroke-opacity:1"
         d="m 82.545567,185.18855 -1.425091,7.30815 5.453596,2.52797 2.139785,-4.11637 0.42739,-0.95811 1.516366,-3.92121 z"
         id="path37"
         sodipodi:nodetypes="ccccccc" /><path
         style="opacity:1;fill:#a1bce1;fill-opacity:1;stroke:none;stroke-width:0.0649999;stroke-linecap:round;stroke-dasharray:none;stroke-opacity:1"
         d="m 92.512283,205.56371 c -4.015248,1.78857 -7.61429,3.78013 -11.799006,5.37099 -2.72119,1.01665 -6.12604,1.61168 -8.907922,1.74411 l 4.533987,1.476 c -1.789688,0.73784 -4.36555,1.28322 -7.032898,1.1579 -1.855874,-0.21851 -3.863611,-1.74326 -4.437848,-3.34707 -2.187996,-0.57572 -2.65024,-1.01317 -4.816449,-1.71284 -0.08521,0.4052 0.03921,2.34489 0.802019,3.6959 4.994434,3.20221 11.982017,2.67364 17.991666,1.68671 4.568851,-2.19444 9.174527,-4.33979 13.656936,-6.64949 z"
         id="path41"
         sodipodi:nodetypes="ccccccccccc" /><path
         style="opacity:1;fill:#adbfd6;fill-opacity:1;stroke:none;stroke-width:0.0649999;stroke-linecap:round;stroke-dasharray:none;stroke-opacity:1"
         d="m 84.711152,197.86201 c 0.542362,-0.5265 1.093816,-0.74669 1.564286,-1.87914 0.178673,0.3739 0.384347,0.86355 0.470843,1.35687 0.180922,0.96797 0.03437,1.93968 -0.539912,1.99601 -0.315658,0.031 -0.516644,-0.19507 -0.718175,-0.32485 -0.314685,-0.30757 -0.519915,-0.65275 -0.706552,-0.98177 -0.03568,-0.0629 -0.05519,-0.12353 -0.07049,-0.16712 z"
         id="path45"
         sodipodi:nodetypes="cccscsc" /></g><g
       id="g76"
       inkscape:label="Pe Esquerdo"
       transform="matrix(-1,0,0,1,209.09721,1.7773424)"><path
         style="fill:#6d71d6;fill-opacity:1;stroke:#000000;stroke-width:1.365;stroke-linecap:round;stroke-dasharray:none;stroke-opacity:1"
         d="m 81.26664,191.76588 c -2.663674,0.61808 -5.779445,-0.17921 -5.554196,2.7771 -1.359249,1.02159 -2.930553,-0.002 -3.507911,2.15591 -1.2886,0.52625 -2.611298,1.01841 -3.142505,2.30206 -11.384737,2.29867 -9.726911,13.9726 -8.623618,15.71253 7.46686,3.54085 11.796524,2.3541 18.855029,1.46163 5.267768,-2.13547 9.908099,-4.44206 14.104732,-6.86966 -0.164394,-5.11355 -0.529746,-9.57811 -1.388548,-14.39706 0.220036,-3.9235 -1.891734,-3.57201 -3.28867,-4.53106 z"
         id="path61"
         sodipodi:nodetypes="cccccccccc" /><path
         style="opacity:1;fill:#fbfbfb;fill-opacity:1;stroke:#000000;stroke-width:0.765;stroke-linecap:round;stroke-dasharray:none;stroke-opacity:1"
         d="m 80.887452,203.20189 c 1.592137,0.0434 2.169747,-0.39 1.523537,-2.43895 2.807102,0.9718 2.331036,-1.28678 1.937866,-2.73885 1.770418,3.47409 4.04091,1.09421 2.131654,-2.48047 -1.520407,-1.9443 -5.015881,-3.44164 -8.402707,-3.25455 -2.543956,-0.0486 -2.583143,1.08579 -1.90674,2.55692 -2.096434,0.10312 -4.240208,-0.007 -3.812056,2.00127 -1.537834,-0.0289 -3.809886,0.67479 -2.931721,2.62377 4.533284,-0.043 8.579903,0.71094 11.460167,3.73086 z"
         id="path62"
         sodipodi:nodetypes="ccccccccc" /><path
         style="opacity:1;fill:#adbfd6;fill-opacity:1;stroke:none;stroke-width:0.0649999;stroke-linecap:round;stroke-dasharray:none;stroke-opacity:1"
         d="m 80.273642,202.11828 c 0.542362,-0.5265 1.111356,-0.82854 1.581826,-1.96099 0.135679,0.47709 0.294909,0.95418 0.388161,1.43128 0.180922,1.01327 -0.126993,1.14898 -0.693158,1.20797 -0.15531,0.0162 -0.330345,0.0243 -0.523173,0.0263 -0.272361,-0.32047 -0.495185,-0.48128 -0.753656,-0.70453 z"
         id="path63"
         sodipodi:nodetypes="cccsccc" /><path
         style="opacity:1;fill:none;fill-opacity:0;stroke:#000000;stroke-width:0.665;stroke-linecap:round;stroke-dasharray:none;stroke-opacity:1"
         d="m 82.636917,200.75491 c -2.867639,-3.03291 -6.33879,-3.89042 -10.240546,-3.83678"
         id="path64"
         sodipodi:nodetypes="cc" /><path
         style="opacity:1;fill:#adbfd6;fill-opacity:1;stroke:none;stroke-width:0.0649999;stroke-linecap:round;stroke-dasharray:none;stroke-opacity:1"
         d="m 82.06885,199.73893 c 0.754186,-0.45979 1.282059,-1.10725 1.584248,-1.94186 0.107996,0.0941 0.317084,0.18017 0.355568,0.30957 0.12895,0.43357 0.2979,1.4048 0.245991,1.82914 -0.02271,0.62845 -0.423619,0.72018 -0.880247,0.66777 -0.151729,-0.0174 -0.367866,-0.0433 -0.529521,-0.10885 -0.255363,-0.24852 -0.496061,-0.5262 -0.776039,-0.75553 z"
         id="path65"
         sodipodi:nodetypes="ccscsccc" /><path
         style="opacity:1;fill:none;fill-opacity:0;stroke:#000000;stroke-width:0.665001;stroke-linecap:round;stroke-dasharray:none;stroke-opacity:1"
         d="m 84.426577,198.04359 c -1.713104,-1.65454 -4.708105,-3.52876 -8.476619,-3.13521"
         id="path66"
         sodipodi:nodetypes="cc" /><path
         style="opacity:1;fill:#5e62b8;fill-opacity:1;stroke:none;stroke-width:0.0649999;stroke-linecap:round;stroke-dasharray:none;stroke-opacity:1"
         d="m 80.26177,203.73298 c 3.102274,0.0876 8.028687,0.94748 12.061583,-1.10601 l 0.325731,3.49944 -10.505467,4.1291 z"
         id="path67"
         sodipodi:nodetypes="ccccc" /><path
         style="opacity:1;fill:#26295a;fill-opacity:1;stroke:none;stroke-width:0.0649999;stroke-linecap:round;stroke-dasharray:none;stroke-opacity:1"
         d="m 82.962131,208.93127 c 1.318906,-1.70977 6.260935,-2.92063 9.544798,-4.32749 l 0.04373,0.45143 -0.03288,0.30674 0.0093,0.26604 -9.412898,4.7766 z"
         id="path68"
         sodipodi:nodetypes="ccccccc" /><path
         style="opacity:1;fill:#fbfbfb;fill-opacity:1;stroke:#000000;stroke-width:0.265;stroke-linecap:round;stroke-dasharray:none;stroke-opacity:1"
         d="m 83.392842,209.46396 9.261164,-4.30356 -0.0037,3.9005 c -4.486641,2.19349 -8.714319,4.52823 -13.688745,6.45565 -7.546032,1.78303 -12.775744,1.00772 -18.190103,-1.47277 -0.734674,-1.51656 -0.916403,-2.92293 -0.86558,-4.24393"
         id="path69"
         sodipodi:nodetypes="cccccc" /><path
         style="opacity:1;fill:#fbfbfb;fill-opacity:1;stroke:#000000;stroke-width:0.265;stroke-linecap:round;stroke-dasharray:none;stroke-opacity:1"
         d="m 59.87082,209.66955 c 7.58265,3.6571 15.331907,3.42143 23.551725,-0.21794 -1.333738,-9.70104 -10.631885,-9.73045 -14.323976,-10.08525 -6.122447,0.34759 -8.252581,4.5338 -9.227749,10.30319 z"
         id="path70"
         sodipodi:nodetypes="cccc" /><path
         style="opacity:1;fill:#a1bce1;fill-opacity:1;stroke:none;stroke-width:0.0649999;stroke-linecap:round;stroke-dasharray:none;stroke-opacity:1"
         d="m 60.22829,208.48964 c 3.39922,4.02124 19.889563,3.0376 22.692551,-0.8574 0.173753,0.78186 0.129089,0.31736 0.355541,1.74629 -5.766172,2.48186 -11.224635,3.46268 -17.280517,2.26978 -1.879239,-0.37018 -3.780673,-1.00504 -5.974731,-2.04851 0.10816,-0.69978 0.08035,-0.49846 0.207156,-1.11016 z"
         id="path71"
         sodipodi:nodetypes="cccscc" /><path
         style="opacity:1;fill:#474f92;fill-opacity:1;stroke:#000000;stroke-width:0.264999;stroke-linecap:round;stroke-dasharray:none;stroke-opacity:1"
         d="m 86.254424,195.13667 c 1.869823,0.46931 3.822128,-0.4663 5.08367,-1.996 -0.730557,-1.85446 -1.672019,-1.73737 -2.583822,-2.0929"
         id="path72"
         sodipodi:nodetypes="ccc" /><path
         style="opacity:1;fill:#262953;fill-opacity:0.266667;stroke:none;stroke-width:0.065;stroke-linecap:round;stroke-dasharray:none;stroke-opacity:1"
         d="m 86.506348,195.07853 c 1.009781,0.2604 0.821197,0.3383 1.50213,0.0294 1.59575,-0.68745 3.616903,-2.54723 1.169148,-3.92023 l -2.38706,-0.32076"
         id="path73"
         sodipodi:nodetypes="cccc" /><path
         style="opacity:1;fill:#000000;fill-opacity:1;stroke:#000000;stroke-width:0.264999;stroke-linecap:round;stroke-dasharray:none;stroke-opacity:1"
         d="m 82.57864,185.88308 -1.458164,6.61362 5.453596,2.52797 2.139785,-4.11637 0.42739,-0.95811 1.516366,-3.92121 z"
         id="path74"
         sodipodi:nodetypes="ccccccc" /><path
         style="opacity:1;fill:#a1bce1;fill-opacity:1;stroke:none;stroke-width:0.0649999;stroke-linecap:round;stroke-dasharray:none;stroke-opacity:1"
         d="m 92.512283,205.56371 c -4.015248,1.78857 -7.61429,3.78013 -11.799006,5.37099 -2.72119,1.01665 -6.12604,1.61168 -8.907922,1.74411 l 4.533987,1.476 c -1.789688,0.73784 -4.36555,1.28322 -7.032898,1.1579 -1.855874,-0.21851 -3.863611,-1.74326 -4.437848,-3.34707 -2.187996,-0.57572 -2.65024,-1.01317 -4.816449,-1.71284 -0.08521,0.4052 0.03921,2.34489 0.802019,3.6959 4.994434,3.20221 11.982017,2.67364 17.991666,1.68671 4.568851,-2.19444 9.174527,-4.33979 13.656936,-6.64949 z"
         id="path75"
         sodipodi:nodetypes="ccccccccccc" /><path
         style="opacity:1;fill:#adbfd6;fill-opacity:1;stroke:none;stroke-width:0.0649999;stroke-linecap:round;stroke-dasharray:none;stroke-opacity:1"
         d="m 84.711152,197.86201 c 0.542362,-0.5265 1.093816,-0.74669 1.564286,-1.87914 0.178673,0.3739 0.384347,0.86355 0.470843,1.35687 0.180922,0.96797 0.03437,1.93968 -0.539912,1.99601 -0.315658,0.031 -0.516644,-0.19507 -0.718175,-0.32485 -0.314685,-0.30757 -0.519915,-0.65275 -0.706552,-0.98177 -0.03568,-0.0629 -0.05519,-0.12353 -0.07049,-0.16712 z"
         id="path76"
         sodipodi:nodetypes="cccscsc" /></g><g
       id="g101"
       inkscape:label="Boca"><path
         style="fill:#fdfffd;fill-opacity:1;stroke:#000000;stroke-width:0.865;stroke-linecap:square;stroke-dasharray:none;stroke-opacity:1"
         d="m 81.38357,156.40613 c 0.540892,11.35059 7.173544,25.3944 26.7617,21.81755 13.70393,-5.98461 15.09565,-14.53009 14.63167,-23.5949 L 99.905348,136.9489 83.53509,140.87777 Z"
         id="path94"
         sodipodi:nodetypes="cccccc" /><path
         d="m 123.18215,155.06805 c 0.0187,0.41885 0.0381,0.83776 0.0475,1.25419 0.0128,0.56227 0.0163,1.12195 0.008,1.67897 -0.009,0.55702 -0.029,1.11162 -0.0641,1.66243 -0.0351,0.55081 -0.0847,1.09812 -0.15141,1.64176 -0.0667,0.54364 -0.15083,1.08352 -0.25425,1.61902 -0.0517,0.26775 -0.10815,0.53442 -0.17001,0.79995 -0.0619,0.26554 -0.12889,0.53004 -0.20154,0.79324 -0.0726,0.26319 -0.15105,0.52474 -0.23513,0.78548 -0.0841,0.26074 -0.1736,0.5206 -0.26975,0.77876 -0.0961,0.25817 -0.19861,0.51503 -0.30747,0.7705 -0.10886,0.25546 -0.22454,0.50958 -0.34675,0.76223 -0.12222,0.25264 -0.25085,0.50373 -0.38706,0.75344 -0.13621,0.24971 -0.27962,0.49801 -0.43046,0.74465 -0.15085,0.24665 -0.3093,0.49138 -0.47543,0.73484 -0.16612,0.24347 -0.33989,0.48537 -0.52193,0.72554 -0.18204,0.24017 -0.37242,0.47897 -0.57102,0.71572 -0.19861,0.23675 -0.40587,0.47166 -0.62167,0.70487 -0.2158,0.2332 -0.44022,0.46447 -0.67386,0.69401 -0.23365,0.22954 -0.47651,0.4574 -0.72864,0.68316 -0.25213,0.22576 -0.51371,0.44943 -0.78496,0.67128 -0.27126,0.22185 -0.55183,0.44156 -0.84285,0.65939 -0.29102,0.21783 -0.59239,0.43382 -0.90382,0.64751 -0.31142,0.21368 -0.63284,0.42516 -0.96531,0.63458 -0.33248,0.20942 -0.67575,0.41664 -1.02991,0.62167 -0.35417,0.20503 -0.71957,0.40822 -1.09606,0.60875 -0.3765,0.20053 -0.76429,0.39838 -1.16375,0.59428 -0.39947,0.1959 -0.81044,0.38969 -1.23352,0.58084 -0.61316,0.10454 -1.21377,0.19223 -1.80196,0.26355 -0.58819,0.0713 -1.16391,0.12606 -1.72754,0.16537 -0.56363,0.0393 -1.1152,0.0628 -1.65468,0.0713 -0.53948,0.009 -1.06711,0.002 -1.58285,-0.0186 -0.51574,-0.0211 -1.01965,-0.0571 -1.51206,-0.10646 -0.4924,-0.0494 -0.973327,-0.11259 -1.442802,-0.18913 -0.469474,-0.0765 -0.927635,-0.16626 -1.374593,-0.26872 -0.446957,-0.10246 -0.882564,-0.21752 -1.307413,-0.34468 -0.42485,-0.12717 -0.838635,-0.26638 -1.241785,-0.41703 -0.40315,-0.15065 -0.795846,-0.31285 -1.177706,-0.48576 -0.38186,-0.17292 -0.753166,-0.35639 -1.114144,-0.55035 -0.360978,-0.19397 -0.711627,-0.39858 -1.052132,-0.61237 -0.340505,-0.21379 -0.670713,-0.4368 -0.991154,-0.66921 -0.320441,-0.23241 -0.63094,-0.47418 -0.931726,-0.72399 -0.300786,-0.2498 -0.591792,-0.50761 -0.873332,-0.77359 -0.281539,-0.26598 -0.553786,-0.5402 -0.816487,-0.82114 -0.262702,-0.28094 -0.515888,-0.56883 -0.760161,-0.86351 -0.229603,-0.27699 -0.449853,-0.56096 -0.663525,-0.84905 0.1969,0.29845 0.399929,0.59315 0.612366,0.8816 0.226253,0.30721 0.461627,0.6081 0.7059,0.90279 0.244273,0.29468 0.497458,0.58309 0.76016,0.86403 0.262702,0.28094 0.534948,0.55464 0.816488,0.82062 0.281539,0.26598 0.572546,0.52431 0.873331,0.77411 0.300786,0.24981 0.611285,0.49107 0.931726,0.72347 0.320441,0.23241 0.650649,0.45594 0.991154,0.66973 0.340505,0.21379 0.691155,0.41789 1.052132,0.61185 0.360978,0.19396 0.732285,0.37744 1.114144,0.55035 0.38186,0.17292 0.774556,0.33511 1.177706,0.48576 0.40315,0.15065 0.816935,0.28987 1.241785,0.41703 0.424849,0.12717 0.860973,0.24222 1.30793,0.34468 0.446958,0.10247 0.904602,0.19218 1.374077,0.26872 0.469471,0.0765 0.950411,0.14025 1.442811,0.18965 0.4924,0.0494 0.99631,0.0849 1.51205,0.10594 0.51574,0.0211 1.04337,0.0276 1.58285,0.0191 0.53948,-0.009 1.09105,-0.0325 1.65468,-0.0718 0.56363,-0.0393 1.13935,-0.094 1.72754,-0.16537 0.58819,-0.0713 1.1888,-0.159 1.80196,-0.26355 0.42308,-0.19115 0.83405,-0.38494 1.23352,-0.58084 0.39946,-0.1959 0.78725,-0.39375 1.16375,-0.59428 0.37649,-0.20052 0.74189,-0.40371 1.09606,-0.60875 0.35416,-0.20503 0.69743,-0.41224 1.02991,-0.62166 0.33247,-0.20942 0.65389,-0.4209 0.96531,-0.63459 0.31143,-0.21369 0.6128,-0.42916 0.90382,-0.64699 0.29102,-0.21783 0.57211,-0.43805 0.84336,-0.65991 0.27126,-0.22185 0.53232,-0.44552 0.78445,-0.67127 0.25213,-0.22576 0.49499,-0.45362 0.72864,-0.68317 0.23364,-0.22954 0.45857,-0.46081 0.67438,-0.69401 0.2158,-0.2332 0.42255,-0.46812 0.62115,-0.70487 0.1986,-0.23674 0.38898,-0.47555 0.57102,-0.71572 0.18204,-0.24016 0.35581,-0.48155 0.52193,-0.72502 0.16613,-0.24346 0.32458,-0.4887 0.47543,-0.73535 0.15084,-0.24665 0.29425,-0.49495 0.43046,-0.74466 0.13621,-0.24971 0.26484,-0.50079 0.38706,-0.75344 0.12221,-0.25265 0.23789,-0.50676 0.34675,-0.76223 0.10886,-0.25546 0.21132,-0.51233 0.30747,-0.77049 0.0961,-0.25817 0.18568,-0.51751 0.26975,-0.77825 0.0841,-0.26074 0.16248,-0.5228 0.23513,-0.786 0.0726,-0.2632 0.13968,-0.5277 0.20154,-0.79323 0.0619,-0.26554 0.11882,-0.53221 0.17053,-0.79995 0.10342,-0.5355 0.18705,-1.07539 0.25373,-1.61903 0.0667,-0.54364 0.11635,-1.09094 0.15141,-1.64176 0.0351,-0.55081 0.0555,-1.10489 0.0641,-1.66191 0.009,-0.55702 0.005,-1.11722 -0.008,-1.67949 -0.0128,-0.56226 -0.0351,-1.12688 -0.0641,-1.69343 z"
         style="fill:#000000;fill-opacity:0.406452;stroke:none;stroke-width:0.865;stroke-linecap:square"
         id="path97" /><path
         style="fill:#000000;fill-opacity:1;stroke:none;stroke-width:0.865;stroke-linecap:square;stroke-dasharray:none;stroke-opacity:1"
         d="m 88.743336,161.3446 c 10.882447,1.13482 22.363934,-0.22014 25.053344,-2.08537 l 1.18585,0.63001 c -4.14091,5.58556 -19.210474,2.95304 -26.239194,1.45536 z"
         id="path98"
         sodipodi:nodetypes="cccc" /><path
         style="fill:#000000;fill-opacity:1;stroke:none;stroke-width:0.865;stroke-linecap:square;stroke-dasharray:none;stroke-opacity:1"
         d="m 112.44792,157.3444 c -0.0952,0.22958 -0.0747,0.42609 -0.0165,0.61185 1.1578,1.54923 3.00404,2.38627 5.44049,2.61276 -1.56478,-0.94628 -3.03342,-1.83424 -4.51444,-3.24115 -0.29353,-0.12968 -0.59404,-0.1615 -0.90955,0.0165 z"
         id="path99"
         sodipodi:nodetypes="ccccc" /><path
         style="fill:#000000;fill-opacity:0.232258;stroke:none;stroke-width:0.865;stroke-linecap:square;stroke-dasharray:none;stroke-opacity:1"
         d="m 95.266535,166.38984 c 4.668799,1.30839 8.184145,0.93904 11.410155,0.14883 -1.77482,0.87291 -3.36891,2.04705 -5.50664,2.3151 -2.557697,0.13721 -4.252485,-1.20429 -5.903515,-2.46393 z"
         id="path100"
         sodipodi:nodetypes="cccc" /><path
         style="fill:#000000;fill-opacity:0.232258;stroke:none;stroke-width:0.865;stroke-linecap:square;stroke-dasharray:none;stroke-opacity:1"
         d="m 85.890364,168.93646 c 8.907831,8.78181 17.022536,7.3972 24.970056,3.86953 4.95822,-3.08128 10.10285,-8.18422 10.38489,-17.52865 l 1.15755,-0.13229 c -0.55636,5.32225 0.65038,10.81768 -10.21953,19.18229 -13.886791,7.38402 -21.026498,0.62694 -26.292966,-5.39088 z"
         id="path101"
         sodipodi:nodetypes="cccccc" /></g><g
       id="g81"
       inkscape:label="Oculos"><path
         style="opacity:1;fill:#080916;fill-opacity:1;stroke:#000000;stroke-width:0.565;stroke-linecap:round;stroke-dasharray:none;stroke-opacity:1"
         d="m 68.477473,133.36654 2.366471,0.32894 c 10.424393,-1.42988 19.647323,-0.97253 28.110221,0.71285 8.786825,-2.27598 17.581895,-3.2294 34.594275,-1.52135 4.04453,0.41529 7.99337,1.08573 11.90625,1.85208 1.35746,0.97086 2.71993,1.90667 4.03489,3.175 l -15.61042,1.19063 c -1.09272,1.52686 -2.24515,2.95727 -3.9026,3.57187 l -1.38906,6.61458 c -0.51265,2.28715 -1.24763,4.46118 -4.23333,5.49011 -4.92174,1.90979 -10.03113,2.83576 -15.41198,1.52135 -1.92874,-1.22559 -3.87741,-2.3781 -5.29167,-5.4901 l -2.3151,-7.80521 c -0.9662,-2.61083 -3.723536,-2.59424 -4.282948,0.0331 -0.185547,2.22231 -0.735209,4.33724 -1.53789,6.77995 -1.490146,2.37802 -2.447937,5.29987 -7.14375,6.81302 -3.217141,0.38408 -6.462275,0.45255 -9.723437,0.13229 -2.680101,-0.86383 -4.887308,-2.15799 -6.151563,-5.88698 l -1.521354,-7.54062 c -0.189072,-1.11289 -1.110515,-2.82002 -2.645833,-3.10886 -1.371039,0.05 -1.39116,-0.84912 -1.455209,-1.53788 l 0.132291,-3.68763 c 0.142749,-1.03829 0.169014,-1.85552 1.471746,-1.63711 z"
         id="path77"
         sodipodi:nodetypes="cccccccccccccccccccccccc" /><path
         style="fill:#a2aec4;fill-opacity:0.422581;stroke:none;stroke-width:0.264583;stroke-opacity:1"
         d="m 94.713638,138.07143 c -4.140196,1.81648 -9.762306,10.88275 -13.470384,17.02507 2.552851,-0.17258 4.774076,0.49897 7.951268,-1.26284 2.819825,-2.80308 6.338265,-9.02617 5.519116,-15.76223 z"
         id="path46"
         sodipodi:nodetypes="cccc" /><path
         style="fill:#707b93;fill-opacity:0.658824;stroke:none;stroke-width:0.264583;stroke-opacity:1"
         d="m 75.736978,152.73073 c 3.832531,-5.77751 7.842312,-11.40423 12.071615,-16.60863 l -2.976563,-0.023 c -3.606363,4.47499 -7.032088,8.99271 -10.285677,13.68818 z"
         id="path47"
         sodipodi:nodetypes="ccccc" /><path
         style="fill:#707b93;fill-opacity:0.658824;stroke:none;stroke-width:0.264583;stroke-opacity:1"
         d="m 74.447134,148.76198 c 3.168649,-4.32165 6.201899,-8.71118 9.541537,-12.63386 -0.726909,-0.0279 -1.333613,-0.088 -2.000912,-0.0165 -2.888586,3.30491 -5.449752,6.756 -8.036718,10.30221 0.04343,0.8315 0.143811,1.64022 0.496093,2.34818 z"
         id="path48"
         sodipodi:nodetypes="cccccc" /><path
         style="fill:#707b93;fill-opacity:0.658824;stroke:none;stroke-width:0.264583;stroke-opacity:1"
         d="m 73.712934,145.67191 c 2.215329,-3.29671 4.811201,-6.40315 7.390003,-9.51813 h -2.595856 c -1.683797,1.90724 -3.367595,4.15373 -5.051392,6.36101 z"
         id="path49"
         sodipodi:nodetypes="ccccc" /><path
         style="fill:#4d5469;fill-opacity:1;stroke:none;stroke-width:0.264583;stroke-opacity:1"
         d="m 78.035546,136.87226 c -1.45997,-0.005 -2.904287,0.35045 -4.349089,0.69454 l -0.51263,3.27421 c 0.04403,-1.28984 -0.118299,-2.5638 0.132292,-3.86953 1.630489,-0.59122 3.390712,-0.73416 5.205559,-0.81708"
         id="path50"
         sodipodi:nodetypes="ccccc" /><path
         style="fill:#a2aec4;fill-opacity:0.422581;stroke:none;stroke-width:0.264583;stroke-opacity:1"
         d="m 126.42517,137.7908 c -4.1402,1.81648 -9.76231,10.88275 -13.47039,17.02507 2.55285,-0.17258 4.77408,0.49897 7.95127,-1.26284 2.81983,-2.80308 6.33827,-9.02617 5.51912,-15.76223 z"
         id="path51"
         sodipodi:nodetypes="cccc" /><path
         style="fill:#707b93;fill-opacity:0.658824;stroke:none;stroke-width:0.264583;stroke-opacity:1"
         d="m 106.54418,151.79902 c 3.83253,-5.77751 7.34622,-10.90814 11.57552,-16.11254 l -2.97656,-0.023 c -3.60636,4.47499 -6.83365,8.43047 -10.08724,13.12594 z"
         id="path52"
         sodipodi:nodetypes="ccccc" /><path
         style="fill:#707b93;fill-opacity:0.658824;stroke:none;stroke-width:0.264583;stroke-opacity:1"
         d="m 104.75824,148.32636 c 3.16865,-4.32165 6.2019,-8.71118 9.54154,-12.63386 -0.72691,-0.0279 -1.33361,-0.088 -2.00091,-0.0165 -2.88859,3.30491 -5.31746,6.52449 -7.90443,10.0707 0.0434,0.8315 0.20996,1.83866 0.56224,2.54662 z"
         id="path53"
         sodipodi:nodetypes="cccccc" /><path
         style="fill:#707b93;fill-opacity:0.658824;stroke:none;stroke-width:0.264583;stroke-opacity:1"
         d="m 104.25555,144.97171 c 2.21533,-3.29671 4.57969,-6.13857 7.1585,-9.25355 h -2.59586 c -1.6838,1.90724 -3.36759,4.15373 -5.05139,6.36101 z"
         id="path54"
         sodipodi:nodetypes="ccccc" /><path
         style="fill:#4d5469;fill-opacity:1;stroke:none;stroke-width:0.264583;stroke-opacity:1"
         d="m 108.34666,136.43664 c -1.45997,-0.005 -2.90429,0.35045 -4.34909,0.69454 l -0.51263,3.27421 c 0.044,-1.28984 -0.1183,-2.5638 0.13229,-3.86953 1.63049,-0.59122 3.39071,-0.73416 5.20556,-0.81708"
         id="path55"
         sodipodi:nodetypes="ccccc" /><path
         style="fill:#4d5469;fill-opacity:1;stroke:none;stroke-width:0.264583;stroke-opacity:1"
         d="m 103.12335,141.44819 c -0.055,0.46916 -0.31288,1.70144 -0.0199,3.67057 0.22503,1.05152 0.45455,2.08977 0.80403,3.16483 l -0.58313,-3.37662 c -0.18816,-1.0538 -0.17578,-2.27167 -0.201,-3.45878 z"
         id="path56"
         sodipodi:nodetypes="ccccc" /><path
         style="fill:#4d5469;fill-opacity:1;stroke:none;stroke-width:0.264583;stroke-opacity:1"
         d="m 70.974478,139.66693 c -0.494367,-0.85236 -1.170993,-1.3899 -2.149739,-1.4056 l -0.01654,-3.3569 c 13.400125,-2.05912 22.091071,-1.30742 30.079818,-0.0496 13.253763,-2.72997 22.923083,-2.27393 32.120653,-1.50081 l 0.0386,1.02125 -0.49196,-0.0248 -0.27283,-0.42994 c -12.86753,-1.40365 -22.35934,-0.33968 -31.369669,1.30638 -9.147216,-1.36989 -18.910641,-1.47445 -29.294335,0.30592 l 0.08268,1.88516 c 1.355333,0.6042 1.290551,1.43029 1.273372,2.24895 z"
         id="path57"
         sodipodi:nodetypes="ccccccccccccc" /><path
         style="fill:none;fill-opacity:1;stroke:#4e4861;stroke-width:0.265;stroke-linecap:square;stroke-dasharray:none;stroke-opacity:1"
         d="m 128.96457,138.06293 c -0.28552,-1.12537 1.71249,-1.34139 0.73915,-2.8623"
         id="path58"
         sodipodi:nodetypes="cc" /><path
         d="m 149.32629,137.92646 -15.44712,1.17823 c -0.27318,0.38171 -0.55008,0.75727 -0.83768,1.11569 -0.2876,0.35842 -0.58581,0.6997 -0.90175,1.01234 -0.15797,0.15632 -0.32068,0.30531 -0.48834,0.44597 -0.16767,0.14066 -0.34026,0.27313 -0.51935,0.39533 -0.1791,0.12219 -0.36429,0.23446 -0.55656,0.33538 -0.19227,0.10091 -0.39175,0.19034 -0.59893,0.26716 l -1.38906,6.61459 c -0.0641,0.28589 -0.13172,0.57025 -0.20671,0.85059 -0.075,0.28034 -0.15732,0.55658 -0.25114,0.82734 -0.0938,0.27076 -0.1993,0.53557 -0.31988,0.79272 -0.12058,0.25714 -0.25609,0.5067 -0.41134,0.7462 -0.15526,0.23951 -0.33028,0.46895 -0.52814,0.68678 -0.19786,0.21783 -0.41875,0.42386 -0.66714,0.61599 -0.24839,0.19212 -0.52412,0.3704 -0.83096,0.53278 -0.30684,0.16239 -0.64481,0.30908 -1.01802,0.4377 -0.61522,0.23872 -1.23343,0.46213 -1.85467,0.66766 -0.62125,0.20552 -1.24567,0.39327 -1.87327,0.56069 -0.6276,0.16742 -1.25811,0.31433 -1.89239,0.43873 -0.63428,0.1244 -1.27229,0.22635 -1.91358,0.30283 -0.64129,0.0765 -1.28614,0.12776 -1.93477,0.15141 -0.64863,0.0236 -1.30121,0.0196 -1.9575,-0.0145 -0.32815,-0.0171 -0.65689,-0.0415 -0.98702,-0.0739 -0.33012,-0.0324 -0.66159,-0.0731 -0.99374,-0.12144 -0.33214,-0.0484 -0.66522,-0.10454 -0.99942,-0.1695 -0.3342,-0.0649 -0.66932,-0.13851 -1.00562,-0.22066 -0.48219,-0.30639 -0.96576,-0.60839 -1.44177,-0.93741 -0.0708,-0.0489 -0.13992,-0.10377 -0.21033,-0.15399 0.0692,0.0821 0.13535,0.17567 0.20567,0.25373 0.21714,0.24103 0.43934,0.46318 0.6656,0.67076 0.22626,0.20758 0.45666,0.40083 0.68988,0.58291 0.23321,0.18208 0.46944,0.35329 0.70745,0.5178 0.47601,0.32902 0.95907,0.63049 1.44125,0.93689 0.33631,0.0821 0.67194,0.15571 1.00614,0.22066 0.33421,0.065 0.66728,0.12164 0.99943,0.17001 0.33214,0.0484 0.66309,0.0885 0.99322,0.12093 0.33012,0.0324 0.65939,0.0568 0.98753,0.0739 0.6563,0.0341 1.30888,0.0381 1.95751,0.0145 0.64863,-0.0236 1.29347,-0.0749 1.93476,-0.15141 0.64129,-0.0765 1.27878,-0.1779 1.91306,-0.3023 0.63429,-0.12441 1.26531,-0.27184 1.89291,-0.43925 0.6276,-0.16742 1.25203,-0.35517 1.87327,-0.56069 0.62125,-0.20553 1.23894,-0.42894 1.85415,-0.66766 0.37321,-0.12862 0.71171,-0.2748 1.01854,-0.43719 0.30684,-0.16238 0.58206,-0.34066 0.83044,-0.53278 0.24839,-0.19212 0.4698,-0.39815 0.66766,-0.61598 0.19787,-0.21783 0.37236,-0.4478 0.52762,-0.6873 0.15526,-0.2395 0.29128,-0.48854 0.41186,-0.74569 0.12058,-0.25715 0.22554,-0.52196 0.31936,-0.79272 0.0938,-0.27076 0.17668,-0.54751 0.25167,-0.82785 0.075,-0.28035 0.1421,-0.5647 0.20619,-0.8506 l 1.38906,-6.61458 c 0.20718,-0.0768 0.40666,-0.16625 0.59893,-0.26717 0.19227,-0.10091 0.37746,-0.21318 0.55655,-0.33538 0.1791,-0.12219 0.3522,-0.25414 0.51987,-0.39481 0.16766,-0.14066 0.32985,-0.29016 0.48782,-0.44648 0.31594,-0.31264 0.61416,-0.65341 0.90176,-1.01182 0.2876,-0.35842 0.56449,-0.7345 0.83767,-1.11622 l 13.38937,-3.04891 z"
         style="opacity:1;fill:#080916;fill-opacity:0.451613;stroke:none;stroke-width:0.565;stroke-linecap:round"
         id="path81"
         sodipodi:nodetypes="ccsssssccssssssscssssccscccscssssccsscssssscsssssssccsssssccc" /><path
         d="m 101.30958,142.94838 c -0.0542,-0.13993 -0.1112,-0.27564 -0.17518,-0.39998 -0.0734,-0.14265 -0.15324,-0.27473 -0.23772,-0.39687 -0.0845,-0.12214 -0.17356,-0.23426 -0.26716,-0.3359 -0.0936,-0.10163 -0.19171,-0.19275 -0.29249,-0.27388 -0.10078,-0.0811 -0.20457,-0.15226 -0.31058,-0.21291 -0.106004,-0.0606 -0.214205,-0.11125 -0.323492,-0.15141 -0.109287,-0.0402 -0.219593,-0.0697 -0.330212,-0.0894 -0.11062,-0.0197 -0.221242,-0.0292 -0.331246,-0.0284 -0.110004,7.7e-4 -0.219154,0.0118 -0.326595,0.0331 -0.107442,0.0212 -0.213329,0.0524 -0.31626,0.0941 -0.102931,0.0417 -0.203251,0.0939 -0.299723,0.15606 -0.09647,0.0621 -0.18892,0.13449 -0.276986,0.21704 -0.08807,0.0826 -0.171368,0.17504 -0.24908,0.27802 -0.07771,0.10299 -0.150081,0.21612 -0.215491,0.33952 -0.06541,0.1234 -0.124023,0.2572 -0.175183,0.40101 -0.05116,0.14381 -0.09475,0.29778 -0.129708,0.46198 -0.04639,0.55558 -0.115507,1.1047 -0.205672,1.65365 -0.09016,0.54895 -0.201291,1.09772 -0.331763,1.65365 -0.130472,0.55593 -0.280211,1.119 -0.447518,1.6955 -0.167307,0.5765 -0.352268,1.16648 -0.552938,1.77715 -0.372536,0.59451 -0.711972,1.22321 -1.084688,1.85519 -0.186358,0.31598 -0.380787,0.63279 -0.592212,0.94671 -0.211425,0.31391 -0.439808,0.62493 -0.692981,0.92914 -0.253173,0.30422 -0.53124,0.60143 -0.842842,0.88832 -0.155801,0.14344 -0.319974,0.28451 -0.49351,0.4222 -0.173536,0.13768 -0.356482,0.2721 -0.549838,0.40307 -0.193356,0.13097 -0.397104,0.25808 -0.612365,0.38137 -0.215262,0.1233 -0.441844,0.24293 -0.681096,0.3576 -0.239252,0.11468 -0.491215,0.2246 -0.756543,0.3297 -0.265327,0.1051 -0.544187,0.20515 -0.837675,0.29972 -0.804284,0.096 -1.610343,0.17247 -2.41794,0.2279 -0.807597,0.0554 -1.616707,0.0898 -2.427242,0.10232 -0.810535,0.0125 -1.622411,0.003 -2.43551,-0.0295 -0.813099,-0.0326 -1.627455,-0.0884 -2.442745,-0.16847 -0.335012,-0.10797 -0.662536,-0.22244 -0.981852,-0.34778 -0.319317,-0.12534 -0.630459,-0.26132 -0.932243,-0.41186 -0.238659,-0.11905 -0.466832,-0.25562 -0.693498,-0.39481 0.103681,0.13606 0.200777,0.28715 0.309542,0.41186 0.238171,0.2731 0.488097,0.52025 0.749308,0.74466 0.261211,0.22441 0.533555,0.42623 0.815971,0.60978 0.282416,0.18356 0.574648,0.34866 0.876432,0.4992 0.301784,0.15053 0.612927,0.28652 0.932243,0.41186 0.319316,0.12534 0.64684,0.2398 0.981852,0.34778 0.81529,0.0801 1.629646,0.13585 2.442745,0.16847 0.8131,0.0326 1.624976,0.0425 2.435511,0.03 0.810534,-0.0126 1.619645,-0.0474 2.427242,-0.10284 0.807596,-0.0554 1.613655,-0.13187 2.41794,-0.22789 0.293488,-0.0946 0.572348,-0.19462 0.837675,-0.29972 0.265327,-0.1051 0.517291,-0.21502 0.756543,-0.3297 0.239252,-0.11467 0.465834,-0.23378 0.681095,-0.35708 0.215262,-0.1233 0.41901,-0.25093 0.612366,-0.38189 0.193356,-0.13097 0.376301,-0.2654 0.549837,-0.40308 0.173536,-0.13768 0.337709,-0.27823 0.49351,-0.42168 0.311602,-0.28688 0.590187,-0.58462 0.843359,-0.88883 0.253173,-0.30422 0.48104,-0.61523 0.692465,-0.92914 0.211425,-0.31392 0.40637,-0.63073 0.592728,-0.94672 0.372717,-0.63197 0.711636,-1.26068 1.084172,-1.85518 0.20067,-0.61068 0.385631,-1.20065 0.552938,-1.77715 0.167307,-0.57651 0.317046,-1.13906 0.447518,-1.69499 0.130471,-0.55593 0.241597,-1.10521 0.331762,-1.65416 0.09016,-0.54896 0.159286,-1.09807 0.205672,-1.65365 0.03496,-0.16421 0.07855,-0.31818 0.129708,-0.46199 0.05116,-0.1438 0.11029,-0.27709 0.1757,-0.40049 0.06541,-0.1234 0.137262,-0.23653 0.214974,-0.33951 0.07771,-0.10298 0.161014,-0.19598 0.249081,-0.27854 0.08807,-0.0826 0.181028,-0.15491 0.277498,-0.21704 0.0965,-0.0621 0.1968,-0.11386 0.29973,-0.15555 0.10293,-0.0417 0.2083,-0.0733 0.31574,-0.0946 0.10744,-0.0212 0.21659,-0.0323 0.3266,-0.0331 0.0697,-4.9e-4 0.14019,0.0104 0.21032,0.0181 z"
         style="opacity:1;fill:#080916;fill-opacity:0.451613;stroke:none;stroke-width:0.565;stroke-linecap:round"
         id="path80"
         sodipodi:nodetypes="sssssccsscscsssscssscssssssssscssccsscssssscscccssssssssscssscsssscscscs" /></g></g></svg>
